<?xml version="1.0" standalone="no"?>
<!DOCTYPE svg PUBLIC "-//W3C//DTD SVG 20010904//EN"
 "http://www.w3.org/TR/2001/REC-SVG-20010904/DTD/svg10.dtd">
<svg version="1.0" xmlns="http://www.w3.org/2000/svg"
 width="1280.000000pt" height="807.000000pt" viewBox="0 0 1280.000000 807.000000"
 preserveAspectRatio="xMidYMid meet">
<metadata>
Created by potrace 1.15, written by Peter Selinger 2001-2017
</metadata>
<g transform="translate(0.000000,807.000000) scale(0.100000,-0.100000)"
fill="#000000" stroke="none">
<path d="M7555 8041 c-33 -15 -116 -65 -184 -109 -68 -45 -133 -85 -145 -88
-21 -7 -400 -221 -631 -357 -368 -217 -677 -435 -890 -627 -149 -135 -554
-551 -638 -655 -175 -219 -334 -469 -591 -930 l-166 -298 -88 -274 c-47 -150
-90 -273 -93 -273 -11 0 -21 179 -21 383 1 108 11 365 23 570 19 329 21 407
12 682 -8 270 -11 315 -28 349 -21 44 -72 71 -113 61 -44 -11 -96 -75 -131
-160 -49 -118 -323 -659 -457 -900 -181 -326 -404 -696 -574 -950 -158 -238
-339 -584 -632 -1214 -229 -493 -379 -795 -486 -981 -397 -689 -744 -1293
-795 -1383 l-62 -108 -399 -297 c-220 -163 -406 -302 -414 -308 -12 -9 -5 -23
38 -82 31 -43 57 -69 64 -65 6 4 175 128 374 276 l364 269 76 4 c43 2 633 31
1312 64 679 33 1325 65 1435 70 475 24 2672 131 2900 141 138 7 255 16 260 21
11 10 34 167 25 172 -3 2 -99 34 -215 70 -950 303 -1216 403 -1541 577 -165
88 -336 198 -309 199 19 0 495 -53 940 -105 386 -45 1017 -114 1285 -140 l265
-26 1235 171 c679 94 1273 176 1320 182 47 6 90 13 97 17 6 3 -61 36 -150 73
-89 37 -394 164 -677 281 -283 118 -902 375 -1375 572 -473 196 -864 360 -868
364 -4 4 77 35 180 69 464 151 738 205 1123 222 113 5 273 16 355 24 83 9 382
34 665 56 778 61 1120 97 1475 154 86 14 539 121 1065 250 503 124 925 228
938 231 23 6 23 8 16 88 -3 45 -9 85 -13 89 -4 4 -142 17 -306 28 -1098 75
-1689 168 -2120 335 -410 158 -651 363 -780 662 -60 138 -94 317 -95 489 0 83
-2 92 -20 97 -17 4 -20 14 -20 60 l0 54 -197 6 c-109 3 -252 13 -318 22 -656
87 -1065 370 -1183 820 -63 238 -46 492 52 789 20 60 36 119 36 131 0 43 -26
87 -60 101 -48 20 -78 17 -145 -15z m-45 -295 c-38 -135 -54 -258 -54 -421 -1
-168 13 -262 56 -395 113 -347 383 -613 778 -765 180 -70 456 -128 668 -142
56 -3 102 -9 102 -12 -1 -11 -630 -351 -1670 -901 -388 -205 -745 -397 -795
-426 -49 -29 -90 -52 -92 -50 -2 2 14 39 36 82 91 182 126 340 126 564 -1 216
-37 396 -116 584 -44 107 -35 103 -128 57 l-81 -41 24 -48 c56 -110 109 -321
122 -483 8 -107 -9 -263 -42 -377 -56 -191 -143 -333 -311 -501 -62 -63 -113
-118 -113 -122 0 -10 2 -9 -305 -200 -617 -384 -1607 -1039 -2148 -1421 -54
-39 -100 -68 -102 -66 -2 2 5 33 16 68 63 200 89 456 71 694 -10 135 -46 383
-56 394 -3 2 -42 -5 -88 -15 -95 -22 -90 -8 -64 -157 28 -157 38 -360 26 -510
-27 -349 -115 -556 -319 -755 -31 -30 -182 -145 -336 -255 -303 -216 -1067
-771 -1310 -951 -185 -137 -185 -137 -164 -105 9 14 127 221 264 460 136 239
262 458 280 485 118 185 336 615 565 1110 176 384 397 828 495 1000 38 66 126
208 195 315 289 444 530 864 791 1374 l127 249 7 -79 c9 -91 2 -315 -21 -671
-31 -485 -22 -818 27 -1063 21 -105 130 -502 136 -496 2 2 87 263 188 579
l184 576 147 263 c259 463 404 693 578 913 113 143 612 638 773 766 133 106
305 228 463 328 212 134 794 471 871 504 19 8 72 40 119 70 47 31 88 56 91 56
4 1 -2 -28 -11 -63z m1750 -2086 c89 -432 376 -756 855 -963 397 -172 926
-275 1800 -353 99 -8 181 -17 183 -19 2 -2 -37 -12 -86 -24 -49 -12 -343 -84
-653 -160 -310 -76 -622 -148 -694 -160 -347 -54 -706 -91 -1465 -151 -283
-22 -582 -47 -665 -56 -82 -8 -242 -19 -355 -24 -371 -17 -646 -70 -1095 -212
-162 -51 -644 -221 -673 -237 -13 -7 -8 -12 23 -26 22 -9 369 -153 770 -320
402 -167 964 -401 1250 -520 286 -119 593 -246 682 -283 90 -37 163 -69 163
-72 0 -3 -449 -66 -998 -142 l-997 -136 -330 34 c-181 18 -550 58 -820 89
-269 31 -707 80 -973 110 -265 30 -501 59 -525 65 -23 5 -78 10 -122 10 -69 0
-85 -3 -117 -25 -30 -20 -36 -31 -40 -66 -3 -33 2 -49 23 -79 27 -37 109 -95
206 -144 29 -14 121 -69 205 -122 340 -212 682 -363 1248 -549 313 -102 316
-103 275 -104 -16 -1 -115 -6 -220 -11 -104 -5 -746 -37 -1425 -70 -679 -33
-1323 -65 -1430 -70 -107 -5 -566 -28 -1020 -50 -454 -22 -881 -43 -950 -46
-85 -5 -122 -3 -115 4 27 28 1231 905 1705 1242 296 211 323 228 443 277 481
197 1005 304 1485 304 l172 0 0 96 0 96 -198 -7 c-326 -11 -617 -49 -887 -115
-66 -16 -121 -28 -123 -26 -8 8 997 685 1458 982 692 446 1184 745 1290 784
191 69 434 133 635 165 416 68 933 55 1265 -31 30 -8 58 -11 61 -7 7 7 39 141
39 160 0 20 -267 70 -482 92 -159 16 -634 8 -787 -14 -62 -9 -115 -15 -117
-13 -2 2 186 104 419 227 554 293 1200 640 1462 784 l210 116 12 -87 c7 -49
17 -113 23 -143z"/>
</g>
</svg>
