<?xml version="1.0" standalone="no"?>
<!DOCTYPE svg PUBLIC "-//W3C//DTD SVG 20010904//EN"
 "http://www.w3.org/TR/2001/REC-SVG-20010904/DTD/svg10.dtd">
<svg version="1.0" xmlns="http://www.w3.org/2000/svg"
 width="1280.000000pt" height="883.000000pt" viewBox="0 0 1280.000000 883.000000"
 preserveAspectRatio="xMidYMid meet">
<metadata>
Created by potrace 1.15, written by Peter Selinger 2001-2017
</metadata>
<g transform="translate(0.000000,883.000000) scale(0.100000,-0.100000)"
fill="#000000" stroke="none">
<path d="M10543 8420 c-188 -39 -293 -247 -211 -422 21 -46 25 -64 18 -90 -5
-18 -16 -67 -25 -109 l-17 -77 -44 -17 c-67 -25 -158 -114 -196 -192 -25 -50
-32 -81 -36 -141 l-4 -77 -240 -175 c-132 -96 -245 -178 -252 -182 -7 -4 -36
0 -66 9 -113 33 -262 5 -352 -67 l-36 -29 -46 15 c-32 11 -51 25 -61 44 -22
42 -101 107 -152 124 -60 20 -147 20 -206 0 -62 -21 -144 -96 -173 -159 -29
-61 -32 -158 -7 -231 25 -74 113 -157 188 -180 69 -20 164 -15 214 10 28 15
40 16 82 6 27 -7 49 -17 49 -22 0 -22 61 -135 89 -165 l30 -31 -38 -172 -37
-172 -64 -34 c-77 -41 -129 -90 -164 -153 -31 -57 -56 -150 -56 -206 l0 -41
-292 -214 -291 -213 -69 18 c-76 20 -155 17 -226 -8 l-43 -15 -177 125 c-97
69 -184 132 -193 142 -9 9 -21 34 -27 57 -27 94 -118 181 -214 204 -101 25
-235 -13 -293 -82 -55 -65 -79 -127 -79 -208 -1 -124 54 -213 166 -270 51 -25
73 -30 134 -30 l72 0 188 -133 c187 -132 189 -134 191 -173 7 -114 41 -198
109 -273 31 -35 32 -40 23 -79 -6 -30 -21 -53 -50 -79 -22 -20 -52 -56 -66
-81 -54 -92 -37 -267 32 -332 14 -13 25 -27 25 -31 0 -4 -104 -78 -232 -164
-169 -114 -237 -155 -252 -152 -12 3 -39 10 -61 16 -90 24 -224 2 -294 -48
l-31 -23 -164 63 c-159 61 -165 64 -171 95 -12 65 -65 153 -127 208 l-60 55
13 145 12 145 57 35 c73 45 115 93 154 176 27 57 30 75 30 150 -1 63 -7 100
-23 143 -30 76 -114 167 -189 204 -52 25 -67 28 -167 28 -105 0 -113 -2 -170
-32 -73 -39 -91 -55 -138 -116 -52 -69 -81 -170 -74 -256 9 -91 61 -194 128
-255 l51 -46 -13 -148 -12 -149 -54 -28 c-115 -60 -196 -182 -210 -317 l-6
-61 -251 -165 c-138 -90 -274 -180 -303 -199 l-52 -34 -77 19 c-84 21 -169 21
-233 -1 l-40 -14 -279 206 -279 206 -6 87 c-6 74 -4 93 14 132 72 163 -12 349
-184 407 -46 15 -52 21 -55 48 -2 21 7 44 31 80 104 151 52 359 -110 441 -68
35 -182 40 -248 11 -76 -34 -121 -76 -156 -147 -56 -114 -40 -241 44 -334 l34
-36 6 -148 6 -148 -54 -50 c-64 -58 -111 -146 -123 -228 l-7 -55 -322 -177
-321 -176 -63 26 c-53 22 -80 26 -154 26 -78 1 -98 -3 -150 -27 -32 -15 -74
-39 -93 -54 l-34 -26 -117 32 c-255 70 -243 64 -270 127 -33 76 -105 147 -188
187 -61 29 -77 32 -158 32 -80 0 -97 -4 -155 -31 -124 -58 -203 -167 -223
-307 l-10 -73 -145 -104 -145 -104 -71 -1 c-266 -4 -399 -306 -221 -503 157
-175 453 -101 510 127 11 42 19 50 161 152 l149 107 70 -15 c107 -25 223 1
315 69 26 18 26 18 207 -33 175 -49 182 -52 188 -80 9 -40 75 -138 118 -176
l37 -33 -9 -61 c-6 -34 -12 -62 -13 -63 -2 -1 -23 -11 -48 -23 -76 -35 -136
-96 -177 -181 -35 -70 -38 -82 -38 -161 1 -65 6 -100 24 -144 30 -76 115 -168
189 -204 52 -25 67 -28 167 -28 100 0 115 3 167 28 75 37 159 128 189 204 17
44 23 79 23 144 0 80 -3 93 -37 162 -21 43 -54 90 -77 111 l-41 36 11 63 11
62 57 27 c87 40 146 98 187 181 19 40 38 95 41 123 l6 50 323 177 323 177 55
-25 c75 -35 164 -42 249 -20 39 9 73 13 81 8 46 -27 547 -406 547 -414 0 -5
-15 -29 -34 -53 -46 -60 -61 -107 -60 -191 0 -60 5 -79 34 -133 53 -100 152
-162 259 -162 l48 0 18 -190 17 -190 -46 -50 c-59 -63 -99 -148 -104 -222 l-4
-57 -172 -112 -171 -112 -85 -1 c-72 -1 -94 -5 -142 -29 -180 -88 -224 -322
-88 -470 65 -71 128 -99 223 -99 60 0 80 5 135 34 75 38 113 81 147 164 l23
59 174 112 c109 71 179 111 188 107 85 -37 209 -41 282 -11 l34 14 150 -102
c150 -103 150 -103 167 -158 22 -71 94 -152 162 -183 70 -33 180 -33 251 0
105 49 165 138 172 257 4 67 1 83 -23 138 -52 115 -168 186 -290 179 l-61 -3
-145 100 -146 100 -10 72 c-18 121 -83 225 -181 287 l-38 23 -22 234 c-12 129
-22 245 -22 258 0 15 19 44 51 78 65 68 100 146 107 232 l4 67 310 203 310
202 41 -16 c103 -41 254 -26 351 35 l44 28 154 -60 c164 -64 178 -72 178 -97
0 -34 51 -123 99 -174 l49 -52 -10 -120 -10 -119 -44 -49 c-131 -146 -79 -380
104 -468 72 -35 179 -33 254 4 172 85 222 296 108 457 -19 27 -20 35 -10 137
5 59 10 113 10 118 0 6 24 28 53 49 95 69 149 162 163 282 l6 59 279 188 279
188 66 -21 c79 -24 130 -25 209 -5 32 9 64 14 71 11 7 -3 141 -100 297 -215
251 -186 284 -213 280 -234 -8 -40 15 -139 47 -204 21 -41 51 -80 90 -116 l60
-54 0 -122 0 -122 -55 -51 c-36 -32 -66 -73 -87 -116 -30 -61 -33 -74 -33
-162 0 -78 4 -104 23 -145 36 -79 72 -124 131 -166 101 -72 240 -91 354 -49
l56 21 300 -168 299 -168 11 -60 c17 -92 63 -176 131 -238 l60 -54 0 -77 c0
-75 -1 -80 -35 -119 -46 -54 -69 -131 -63 -212 16 -196 218 -324 403 -254 109
41 195 154 195 255 0 26 8 39 40 64 25 19 51 56 72 98 55 111 42 223 -38 327
l-34 45 19 32 c32 55 53 144 49 210 l-3 62 173 150 174 151 67 6 c262 25 370
334 181 518 -103 100 -275 107 -393 17 -50 -38 -95 -113 -108 -180 l-12 -56
-174 -151 -173 -150 -57 12 c-74 15 -162 5 -228 -25 l-53 -24 -283 160 c-156
88 -294 165 -305 173 -15 9 -23 28 -26 59 -8 67 -53 150 -114 210 l-54 53 0
125 0 126 44 33 c54 42 112 119 127 169 13 43 9 41 159 60 l95 12 61 -60 c119
-117 285 -142 436 -66 223 113 277 414 108 598 -183 199 -502 151 -628 -94
l-28 -54 -119 -18 -118 -18 -15 22 c-88 129 -271 195 -426 154 l-64 -18 -158
118 c-88 65 -218 161 -290 215 l-131 97 -5 75 c-6 88 -45 181 -103 246 -33 36
-37 46 -32 78 4 25 21 51 51 82 90 94 117 205 76 315 -12 32 -38 76 -56 96
l-34 38 259 190 260 190 52 -15 c72 -21 208 -14 272 15 27 12 65 35 85 50 l37
29 84 -26 83 -26 19 -50 c10 -27 37 -74 60 -104 l41 -54 -23 -108 c-22 -102
-25 -110 -60 -136 -81 -61 -127 -167 -116 -269 27 -259 354 -363 526 -168 75
85 94 219 46 323 l-25 54 22 110 23 110 53 25 c129 61 216 188 230 334 l7 77
249 181 248 181 50 -17 c37 -12 73 -15 137 -12 93 5 158 27 221 77 34 26 36
27 82 14 30 -9 49 -21 53 -33 12 -36 97 -109 152 -130 148 -55 307 5 381 145
22 42 27 63 27 130 0 68 -4 89 -28 137 -68 139 -223 200 -375 149 -54 -18 -69
-20 -102 -10 -34 10 -41 18 -65 74 -14 35 -42 81 -61 104 l-35 41 37 169 37
170 56 27 c72 35 150 113 185 185 27 56 51 175 40 202 -3 10 51 55 170 142
l175 127 73 2 c323 6 412 438 119 574 -100 46 -222 29 -318 -44 -39 -30 -83
-101 -98 -160 -10 -40 -21 -50 -183 -168 l-173 -127 -51 16 c-112 33 -253 9
-346 -58 l-49 -35 -87 26 c-47 14 -86 30 -86 36 0 23 -49 113 -82 153 l-35 42
24 108 c24 106 25 109 73 151 136 119 140 328 8 447 -72 65 -173 94 -265 75z
m257 -1401 l78 -22 21 -57 c12 -31 39 -78 61 -103 l40 -45 -37 -172 -37 -172
-38 -19 c-20 -10 -48 -19 -60 -19 -13 0 -29 -10 -38 -24 -8 -13 -34 -47 -57
-75 -43 -53 -81 -138 -85 -192 -2 -29 -31 -55 -142 -131 -7 -4 -5 -16 4 -32 7
-14 11 -28 9 -30 -2 -1 -49 -36 -103 -76 l-100 -73 -18 23 -18 22 -80 -58
c-79 -57 -80 -58 -64 -82 8 -13 14 -25 12 -28 -2 -2 -26 3 -53 11 -26 8 -72
15 -101 15 -29 0 -75 5 -103 12 -55 12 -81 2 -81 -33 0 -11 -5 -19 -11 -19 -7
0 -32 -15 -58 -33 l-46 -33 -83 25 -83 26 -24 58 c-24 60 -33 74 -73 119 l-24
26 32 149 c17 81 34 158 37 171 4 16 25 32 67 53 33 17 81 52 105 77 49 53
100 153 108 212 5 36 13 46 74 91 38 28 69 53 69 57 0 3 -7 13 -16 23 -14 16
-8 22 81 89 53 39 102 73 109 76 7 3 20 -4 30 -15 18 -19 19 -19 94 36 43 31
79 58 81 60 2 1 -4 12 -14 23 -26 28 -8 45 31 29 16 -7 70 -15 119 -19 50 -4
99 -11 109 -15 15 -7 18 -5 14 6 -4 11 11 23 57 43 35 15 71 36 81 47 22 24
29 24 124 -2z m-4684 -2936 c-3 -27 -8 -78 -12 -115 -3 -38 -11 -68 -16 -68
-6 0 -8 20 -5 53 4 28 9 80 13 115 3 34 10 62 16 62 6 0 8 -19 4 -47z m-3706
-1648 c0 -14 -4 -25 -10 -25 -5 0 -10 11 -10 25 0 14 5 25 10 25 6 0 10 -11
10 -25z"/>
<path d="M10713 6929 c-7 -7 -13 -21 -13 -30 0 -22 12 -30 78 -50 l52 -17 0
27 c0 15 5 32 12 39 8 8 5 14 -16 22 -49 18 -100 22 -113 9z"/>
<path d="M10871 6733 c-5 -21 -13 -55 -17 -75 -6 -35 -5 -38 18 -38 13 0 29
-5 36 -12 16 -16 16 -14 34 69 17 80 12 93 -34 93 -23 0 -29 -6 -37 -37z"/>
<path d="M9492 6038 c-9 -12 -32 -105 -32 -131 0 -7 8 -13 18 -13 9 0 26 -3
37 -7 19 -6 22 -1 33 51 7 32 12 68 12 79 0 31 -48 45 -68 21z"/>
<path d="M9530 5776 c-24 -30 -8 -59 39 -73 24 -7 53 -15 64 -19 16 -5 19 -3
13 11 -3 10 0 28 8 40 14 21 13 22 -38 38 -64 21 -70 21 -86 3z"/>
</g>
</svg>
